# xmcd
#
# Track frame offsets:
#	150
#	17694
#	44469
#	70137
#	81777
#	96207
#	118731
#	134232
#	153192
#	171444
#	187926
#	205137
#	224526
#	239868
#	258891
#
# Disc length: 3660 seconds
#
# Revision: 0
# Processed by: cddbd v1.5.2PL0 Copyright (c) Steve Scherf et al.
# Submitted via: dBpowerAMP V4.0
#
DISCID=dd0e4a0f
DTITLE=Rattlebones - Live
DYEAR=1900
DGENRE=Blues
TTITLE0=Walking The Dog
TTITLE1=Had My Fun
TTITLE2=Muddy Water Blues
TTITLE3=Baby Please Don't Go
TTITLE4=It's All Right Mama
TTITLE5=Little Red Rooster
TTITLE6=It Hurts Me Too
TTITLE7=Jambalaya
TTITLE8=Uncle Sam's Blues
TTITLE9=Sugar Coated Love
TTITLE10=Dust My Broom
TTITLE11=Kind-hearted Woman
TTITLE12=Big Boss Man
TTITLE13=Early This Morning
TTITLE14=King Bee
EXTD=
EXTT0=
EXTT1=
EXTT2=
EXTT3=
EXTT4=
EXTT5=
EXTT6=
EXTT7=
EXTT8=
EXTT9=
EXTT10=
EXTT11=
EXTT12=
EXTT13=
EXTT14=
PLAYORDER=
